<svg fill="none" xmlns="http://www.w3.org/2000/svg" viewBox="0 0 612 109">
  <path d="M611.629 108.92c-1.449-32.665-28.317-58.64-61.316-58.64-2.601 0-5.165.148-7.692.445C529.02 20.847 498.919 0 463.913 0c-27.76 0-52.509 13.155-68.34 33.445a71.465 71.465 0 00-20.848-3.121c-39.353 0-71.238 31.996-71.238 71.349 0 2.453.112 4.869.335 7.247h307.807z" fill="#EDEBEB"/>
  <path d="M361.551 108.978c.821-17.308 18.486-31.066 39.984-31.066 1.734 0 3.423.074 5.066.222 8.901-15.866 28.482-26.85 51.349-26.85 18.212 0 34.37 6.99 44.64 17.752 4.382-1.11 8.9-1.664 13.693-1.664 25.743 0 46.557 16.864 46.557 37.723 0 1.331-.092 2.626-.274 3.883H361.551z" fill="#F7F9FB"/>
  <path d="M352.576 108.978c-1.531-32.682-32.273-58.672-70.031-58.672-2.976 0-5.91.149-8.801.446C258.181 20.86 223.74 0 183.686 0c-31.89 0-60.08 13.162-78.194 33.463a92.67 92.67 0 00-23.854-3.123C36.61 30.34 0 62.353 0 101.728c0 2.454.17 4.87.51 7.25h352.066z" fill="#EDEBEB"/>
  <path d="M76.926 108.978c1.269-18.429 22.84-33.172 49.33-33.172 2.009 0 4.071.075 6.186.224 10.786-16.865 35.055-28.593 63.13-28.593 22.365 0 42.193 7.372 54.882 18.876a81.095 81.095 0 0116.813-1.787c31.565 0 57.103 18.093 57.103 40.319a52.42 52.42 0 01-.159 4.133H76.926z" fill="#F7F9FB"/>
</svg>
