<svg fill="none" xmlns="http://www.w3.org/2000/svg" viewBox="0 0 273 432">
  <path d="M224.482 431.152L39.295 419.64c-13.324-.816-23.386-12.146-22.57-25.471L39.658 23.614C40.474 10.38 51.895.228 65.129 1.134l185.277 11.421c13.235.816 23.296 12.237 22.48 25.471l-22.933 370.646c-.816 13.234-12.237 23.296-25.471 22.48z" fill="#070B3A"/>
  <path d="M207.803 430.064L22.616 418.643C9.382 417.827-.77 406.406.046 393.172L22.979 22.526C23.795 9.292 35.216-.769 48.45.046l185.278 11.512c13.234.816 23.295 12.146 22.479 25.471l-22.933 370.555c-.815 13.234-12.237 23.296-25.471 22.48z" fill="url(#3-6ryEZamEc8a)"/>
  <path d="M234 20.623l-22.57-1.45c-3.535-.182-6.617 2.537-6.799 6.073-.272 4.713-4.351 8.248-9.064 7.976L83.711 26.333c-4.713-.272-8.339-4.35-8.067-9.064.272-3.535-2.447-6.617-5.982-6.89L47.092 9.02c-8.703-.544-16.226 6.073-16.77 14.866L7.48 392.809c-.544 8.702 6.073 16.225 14.865 16.769l186.819 11.603c8.792.544 16.316-6.164 16.859-14.866l22.843-368.923c.544-8.702-6.164-16.316-14.866-16.77z" fill="#fff"/>
  <path fill-rule="evenodd" clip-rule="evenodd" d="M251.312 37.573L228.47 406.406c-.635 10.152-9.337 17.857-19.398 17.222l-186.91-11.512c-10.06-.634-17.766-9.427-17.131-19.488L27.783 23.705C28.417 13.643 37.21 5.938 47.27 6.482l22.48 1.45 141.859 8.793 22.48 1.36c10.152.634 17.856 9.336 17.222 19.488zm-11.603-.725a6.84 6.84 0 00-6.345-7.16l-19.941-1.18c-1.813 8.34-9.609 14.413-18.401 13.87l-111.946-6.89c-8.793-.544-15.772-7.523-16.498-16.044l-20.032-1.269a6.572 6.572 0 00-7.07 6.255L16.633 393.353c-.181 3.626 2.629 6.889 6.255 7.07l186.909 11.603c3.626.181 6.798-2.629 7.07-6.345l22.842-368.833z" fill="#2A4060"/>
  <path d="M100.027 23.704c-.181 3.264-2.991 5.802-6.345 5.62-3.263-.272-5.801-3.082-5.53-6.345.182-3.263 2.992-5.801 6.346-5.62 3.263.182 5.801 3.082 5.529 6.345zm87.744 9.066l-72.697-4.533c-1.995-.09-3.536-1.813-3.354-3.807.09-1.994 1.813-3.535 3.807-3.354l72.606 4.441c1.994.182 3.535 1.904 3.445 3.808-.182 1.994-1.813 3.535-3.807 3.444z" fill="#070B3A"/>
  <defs>
    <linearGradient id="3-6ryEZamEc8a" x1="-264.885" y1="472.826" x2="-234.189" y2="-23.342" gradientUnits="userSpaceOnUse">
      <stop stop-color="#2A4060"/>
      <stop offset="1" stop-color="#385580"/>
    </linearGradient>
  </defs>
</svg>
