<svg fill="none" xmlns="http://www.w3.org/2000/svg" viewBox="0 0 75 101">
  <path d="M67.276 100.961H7.733c-4.21 0-7.733-3.437-7.733-7.733V51.986c0-4.296 3.523-7.733 7.733-7.733h59.544c4.21 0 7.732 3.437 7.732 7.733v41.242c0 4.296-3.522 7.733-7.733 7.733z" fill="#FEDB03"/>
  <path d="M67.276 87.471H7.733C3.523 87.471 0 84.034 0 79.738v13.49c0 4.296 3.523 7.733 7.733 7.733h59.544c4.21 0 7.732-3.437 7.732-7.733v-13.49c0 4.296-3.522 7.733-7.733 7.733z" fill="#F1C40F"/>
  <path d="M67.276 44.253h-11.17c4.21 0 7.733 3.437 7.733 7.733v41.242c0 4.296-3.522 7.733-7.733 7.733h11.17c4.21 0 7.733-3.437 7.733-7.733V51.986c0-4.296-3.523-7.733-7.733-7.733zm-59.543 0h11.17c-4.21 0-7.733 3.437-7.733 7.733v41.242c0 4.296 3.523 7.733 7.733 7.733H7.733c-4.21 0-7.733-3.437-7.733-7.733V51.986c0-4.296 3.523-7.733 7.733-7.733z" fill="#F1C40F"/>
  <path d="M14.607 44.253V30.42c0-12.287 9.452-22.941 21.738-23.543 13.146-.601 24.058 9.881 24.058 22.855v.86c0 1.89 1.461 3.436 3.437 3.436a3.447 3.447 0 003.437-3.436v-.086c0-16.583-13.661-30.76-30.244-30.503-16.24.258-29.3 13.49-29.3 29.73v14.52h6.874z" fill="#fff"/>
  <path d="M14.607 36.864H7.734v7.39h6.873v-7.39z" fill="#D7D1EB"/>
  <path d="M43.39 68.14c0-3.867-3.18-7.046-7.046-7.046S29.3 64.273 29.3 68.139a6.784 6.784 0 003.265 5.843v6.358c0 2.062 1.718 3.78 3.78 3.78a3.759 3.759 0 003.78-3.78v-6.358a6.784 6.784 0 003.266-5.843z" fill="#070B3A"/>
</svg>
