<svg fill="none" xmlns="http://www.w3.org/2000/svg" viewBox="0 0 32 32">
  <path d="M6.667 13.433V7.73c0-.63.471-1.14 1.052-1.14h17.895c.581 0 1.053.51 1.053 1.14v5.704c0 .63-.472 1.141-1.053 1.141H7.719c-.581 0-1.052-.51-1.052-1.14z" fill="#fff"/>
  <path d="M8.246 24.271v-9.697h16.842v9.697c0 .63-.472 1.14-1.053 1.14H9.298c-.581 0-1.052-.51-1.052-1.14z" fill="#fff"/>
  <path d="M11.96 19.53h9.412M6.667 7.73v5.703c0 .63.471 1.141 1.052 1.141h17.895c.581 0 1.053-.51 1.053-1.14V7.728c0-.63-.472-1.14-1.053-1.14H7.719c-.581 0-1.052.51-1.052 1.14zm1.579 6.844v9.697c0 .63.47 1.14 1.052 1.14h14.737c.581 0 1.053-.51 1.053-1.14v-9.697H8.246z" stroke="#000" stroke-opacity=".54" stroke-width="2.118"/>
</svg>
