<svg fill="none" xmlns="http://www.w3.org/2000/svg" viewBox="0 0 248 182">
  <path d="M232.32 6.496l.046.408-2.931.33-.046-.408 2.931-.33zm-3.381-4.93l.636 5.652-.477.054-.636-5.652.477-.054zm3.906 3.224l-.014-.128a2.609 2.609 0 01.037-.86c.058-.27.159-.507.301-.715.144-.207.325-.376.544-.505.218-.132.469-.214.751-.246.284-.032.548-.008.79.072.242.078.457.202.643.372.187.17.339.38.456.629.117.249.193.526.228.831l.014.128c.034.306.022.593-.037.862a1.987 1.987 0 01-.305.71 1.737 1.737 0 01-.54.509c-.219.13-.469.21-.751.242a1.87 1.87 0 01-.79-.069 1.767 1.767 0 01-.644-.375 1.986 1.986 0 01-.456-.625 2.65 2.65 0 01-.227-.832zm.448-.18l.014.128c.026.23.082.446.167.646.085.197.196.37.333.517.137.144.299.252.485.323.186.07.394.093.625.067a1.29 1.29 0 00.586-.204c.166-.11.299-.25.401-.422.101-.174.169-.366.206-.578.039-.214.045-.436.019-.666l-.014-.128a2.248 2.248 0 00-.166-.638 1.684 1.684 0 00-.334-.517 1.315 1.315 0 00-.485-.33 1.282 1.282 0 00-.621-.072 1.28 1.28 0 00-.59.208 1.368 1.368 0 00-.4.43 1.785 1.785 0 00-.21.578c-.036.211-.042.43-.016.658zm6.934-2.844l.431-.048.464 4.126c.041.365.006.686-.104.963-.108.277-.281.5-.518.668a1.814 1.814 0 01-.866.31 1.906 1.906 0 01-.545-.022 1.843 1.843 0 01-.543-.182 1.595 1.595 0 01-.456-.35l.228-.313c.194.188.394.319.599.393.205.076.42.102.645.077a1.34 1.34 0 00.658-.235 1.03 1.03 0 00.371-.506c.076-.21.098-.455.067-.735l-.362-3.218-.069-.928zm-2.709 2.475l-.009-.081a3.31 3.31 0 01.009-.894c.045-.272.128-.51.246-.712.119-.204.272-.367.46-.488.191-.123.413-.2.667-.228.243-.027.463-.011.661.048a1.4 1.4 0 01.528.29c.154.135.284.3.391.499.108.197.196.42.264.67l.116 1.036a2.548 2.548 0 01-.097.675c-.06.206-.151.39-.272.554-.121.16-.273.291-.459.393a1.76 1.76 0 01-.65.191 1.453 1.453 0 01-.693-.079 1.48 1.48 0 01-.558-.381 2.177 2.177 0 01-.399-.643 3.265 3.265 0 01-.205-.85zm.456-.134l.01.082c.027.245.077.47.15.675.073.204.169.378.287.522.118.143.26.25.425.321a1.1 1.1 0 00.562.07c.267-.03.485-.105.655-.226a1.22 1.22 0 00.385-.456c.087-.183.144-.378.17-.586l-.136-1.207a2.285 2.285 0 00-.179-.404 1.378 1.378 0 00-.285-.365 1.084 1.084 0 00-.421-.248 1.3 1.3 0 00-.579-.048 1.129 1.129 0 00-.54.194 1.09 1.09 0 00-.343.412 1.722 1.722 0 00-.164.573 3.08 3.08 0 00.003.691zm4.564-2.601l.473 4.2-.462.052-.473-4.2.462-.052zm-.68-1.153a.3.3 0 01.279-.35.302.302 0 01.243.067.296.296 0 01.114.21.307.307 0 01-.287.348.31.31 0 01-.243-.063.33.33 0 01-.106-.212zm2.661 1.839l.372 3.303-.462.052-.473-4.2.443-.05.12.895zm.002.955l-.219-.094a2.31 2.31 0 01.072-.715c.061-.227.155-.432.281-.614a1.54 1.54 0 011.117-.66 1.74 1.74 0 01.573.022c.172.038.323.113.453.224.131.111.237.26.318.448.084.187.142.42.173.7l.307 2.733-.465.052-.308-2.737c-.033-.29-.098-.511-.197-.665a.727.727 0 00-.381-.315 1.223 1.223 0 00-.536-.046 1.147 1.147 0 00-.57.213 1.38 1.38 0 00-.377.424c-.094.165-.161.34-.2.522a1.7 1.7 0 00-.041.508z" fill="#385580"/>
  <path d="M5.174 177.768v.92H.908v-.92h4.266zm-4.043-7.611v8.531H0v-8.531h1.13zm5.037 5.432v-.135c0-.457.066-.881.199-1.272.133-.394.324-.736.574-1.025.25-.293.553-.52.908-.68a2.82 2.82 0 011.196-.246c.445 0 .845.082 1.2.246.36.16.665.387.915.68.254.289.447.631.58 1.025.133.391.2.815.2 1.272v.135c0 .457-.067.88-.2 1.271a3.037 3.037 0 01-.58 1.025 2.66 2.66 0 01-.908.68c-.352.16-.75.24-1.196.24a2.89 2.89 0 01-1.2-.24 2.719 2.719 0 01-.915-.68 3.092 3.092 0 01-.574-1.025 3.925 3.925 0 01-.2-1.271zm1.084-.135v.135c0 .316.037.615.11.896.075.277.186.523.335.738.152.215.342.385.568.51.227.121.49.182.791.182.297 0 .557-.061.78-.182.226-.125.414-.295.562-.51.149-.215.26-.461.334-.738a3.33 3.33 0 00.117-.896v-.135c0-.313-.039-.608-.117-.885a2.282 2.282 0 00-.34-.744 1.615 1.615 0 00-.562-.516 1.578 1.578 0 00-.785-.187 1.6 1.6 0 00-.786.187c-.222.125-.41.297-.562.516-.149.215-.26.463-.334.744a3.407 3.407 0 00-.111.885zm10.304-3.106h.984v6.205c0 .559-.113 1.036-.34 1.43a2.218 2.218 0 01-.949.897c-.402.207-.867.31-1.394.31-.22 0-.477-.035-.774-.105a3.14 3.14 0 01-.867-.346 2.169 2.169 0 01-.709-.65l.568-.645c.266.32.543.543.832.668.293.125.582.187.868.187.343 0 .64-.064.89-.193s.444-.32.58-.574c.14-.25.211-.559.211-.926v-4.863l.1-1.395zm-4.365 3.241v-.124c0-.484.056-.923.17-1.318.117-.398.283-.74.498-1.025.218-.285.482-.504.79-.657a2.28 2.28 0 011.044-.234c.398 0 .746.07 1.042.211.301.137.555.338.762.604.211.261.377.578.498.949s.205.791.252 1.26v.539a5.523 5.523 0 01-.252 1.253 2.956 2.956 0 01-.498.95 2.085 2.085 0 01-.762.603c-.3.137-.652.205-1.054.205-.379 0-.723-.08-1.031-.24a2.347 2.347 0 01-.786-.674 3.194 3.194 0 01-.504-1.019 4.642 4.642 0 01-.17-1.283zm1.084-.124v.124c0 .316.03.613.093.89.067.277.166.522.3.733.136.21.31.377.52.498.212.117.464.175.756.175.36 0 .657-.076.891-.228a1.65 1.65 0 00.557-.604c.14-.25.25-.521.328-.814v-1.412a2.87 2.87 0 00-.2-.621 1.91 1.91 0 00-.34-.539 1.463 1.463 0 00-.509-.381 1.687 1.687 0 00-.715-.141 1.5 1.5 0 00-.767.188 1.493 1.493 0 00-.522.504 2.42 2.42 0 00-.299.738 4.04 4.04 0 00-.093.89zm7.24-3.117v6.34h-1.09v-6.34h1.09zm-1.172-1.681c0-.176.052-.325.158-.446.11-.121.27-.181.48-.181.207 0 .365.06.475.181a.63.63 0 01.17.446.611.611 0 01-.17.433c-.11.117-.268.176-.475.176-.21 0-.37-.059-.48-.176a.636.636 0 01-.158-.433zm4.146 3.035v4.986h-1.084v-6.34h1.025l.059 1.354zm-.258 1.576l-.451-.018c.004-.433.068-.834.193-1.201.125-.371.3-.693.527-.967.227-.273.497-.484.809-.632a2.377 2.377 0 011.049-.229c.312 0 .594.043.844.129.25.082.462.215.638.398.18.184.317.422.41.715.094.289.141.643.141 1.061v4.154h-1.09v-4.166c0-.332-.049-.598-.146-.797a.901.901 0 00-.428-.439 1.532 1.532 0 00-.692-.141 1.61 1.61 0 00-.738.17 1.76 1.76 0 00-.568.469c-.156.199-.28.428-.37.685a2.507 2.507 0 00-.128.809z" fill="#fff"/>
</svg>
